0
SECTION
2
HEADER
9
$INSUNITS
70
1
9
$ACADVER
1
AC1014
9
$HANDSEED
5
FFFF
0
ENDSEC
0
SECTION
2
TABLES
0
TABLE
2
VPORT
5
8
100
AcDbSymbolTable
0
ENDTAB
0
TABLE
2
LTYPE
5
5
100
AcDbSymbolTable
0
LTYPE
5
14
100
AcDbSymbolTableRecord
100
AcDbLinetypeTableRecord
2
BYBLOCK
70
0
0
LTYPE
5
15
100
AcDbSymbolTableRecord
100
AcDbLinetypeTableRecord
2
BYLAYER
70
0
0
LTYPE
5
16
100
AcDbSymbolTableRecord
100
AcDbLinetypeTableRecord
2
DASHED
70
0
3
Dashed __ __ __ __ __ __ __ __ __ __ __ __ __ _
72
65
73
2
40
0.75
49
0.5
74
0
49
-0.25
74
0
0
ENDTAB
0
TABLE
2
LAYER
5
2
100
AcDbSymbolTable
70
2
0
LAYER
5
50
100
AcDbSymbolTableRecord
100
AcDbLayerTableRecord
2
0
70
0
62
7
6
CONTINUOUS
0
ENDTAB
0
TABLE
2
STYLE
5
3
100
AcDbSymbolTable
70
1
0
STYLE
5
11
100
AcDbSymbolTableRecord
100
AcDbTextStyleTableRecord
2
STANDARD
70
0
0
ENDTAB
0
TABLE
2
VIEW
5
6
100
AcDbSymbolTable
70
0
0
ENDTAB
0
TABLE
2
UCS
5
7
100
AcDbSymbolTable
70
0
0
ENDTAB
0
TABLE
2
APPID
5
9
100
AcDbSymbolTable
70
2
0
APPID
5
12
100
AcDbSymbolTableRecord
100
AcDbRegAppTableRecord
2
ACAD
70
0
0
ENDTAB
0
TABLE
2
DIMSTYLE
5
A
100
AcDbSymbolTable
70
1
0
ENDTAB
0
TABLE
2
BLOCK_RECORD
5
1
100
AcDbSymbolTable
70
1
0
BLOCK_RECORD
5
1F
100
AcDbSymbolTableRecord
100
AcDbBlockTableRecord
2
*MODEL_SPACE
0
BLOCK_RECORD
5
1B
100
AcDbSymbolTableRecord
100
AcDbBlockTableRecord
2
*PAPER_SPACE
0
ENDTAB
0
ENDSEC
0
SECTION
2
BLOCKS
0
BLOCK
5
20
100
AcDbEntity
100
AcDbBlockBegin
2
*MODEL_SPACE
0
ENDBLK
5
21
100
AcDbEntity
100
AcDbBlockEnd
0
BLOCK
5
1C
100
AcDbEntity
100
AcDbBlockBegin
2
*PAPER_SPACE
0
ENDBLK
5
1D
100
AcDbEntity
100
AcDbBlockEnd
0
ENDSEC
0
SECTION
2
ENTITIES
0
POINT
5
100
100
AcDbEntity
8
0
100
AcDbPoint
10
0
20
0
30
0
0
LWPOLYLINE
5
101
100
AcDbEntity
8
0
100
AcDbPolyline
90
4
70
1
43
0.0
10
-4.9999999999999991
20
15
10
0
20
15
10
0
20
0
10
-4.9999999999999991
20
0
0
LWPOLYLINE
5
102
100
AcDbEntity
8
0
100
AcDbPolyline
90
4
70
1
43
0.0
10
-4.8749999999999991
20
14.499999999999998
10
-4.6387795275590546
20
14.499999999999998
10
-4.6387795275590546
20
13.499999999999998
10
-4.8749999999999991
20
13.499999999999998
0
LWPOLYLINE
5
103
100
AcDbEntity
8
0
100
AcDbPolyline
90
4
70
1
43
0.0
10
-0.3612204724409443
20
14.499999999999998
10
-0.1249999999999996
20
14.499999999999998
10
-0.1249999999999996
20
13.499999999999998
10
-0.3612204724409443
20
13.499999999999998
0
LWPOLYLINE
5
104
100
AcDbEntity
8
0
100
AcDbPolyline
90
4
70
1
43
0.0
10
-4.8749999999999991
20
11.499999999999998
10
-4.6387795275590546
20
11.499999999999998
10
-4.6387795275590546
20
10.499999999999998
10
-4.8749999999999991
20
10.499999999999998
0
LWPOLYLINE
5
105
100
AcDbEntity
8
0
100
AcDbPolyline
90
4
70
1
43
0.0
10
-0.3612204724409443
20
11.499999999999998
10
-0.1249999999999996
20
11.499999999999998
10
-0.1249999999999996
20
10.499999999999998
10
-0.3612204724409443
20
10.499999999999998
0
LWPOLYLINE
5
106
100
AcDbEntity
8
0
100
AcDbPolyline
90
4
70
1
43
0.0
10
-4.8749999999999991
20
8.4999999999999982
10
-4.6387795275590546
20
8.4999999999999982
10
-4.6387795275590546
20
7.4999999999999982
10
-4.8749999999999991
20
7.4999999999999982
0
LWPOLYLINE
5
107
100
AcDbEntity
8
0
100
AcDbPolyline
90
4
70
1
43
0.0
10
-0.3612204724409443
20
8.4999999999999982
10
-0.1249999999999996
20
8.4999999999999982
10
-0.1249999999999996
20
7.4999999999999982
10
-0.3612204724409443
20
7.4999999999999982
0
LWPOLYLINE
5
108
100
AcDbEntity
8
0
100
AcDbPolyline
90
4
70
1
43
0.0
10
-4.8749999999999991
20
5.4999999999999991
10
-4.6387795275590546
20
5.4999999999999991
10
-4.6387795275590546
20
4.4999999999999991
10
-4.8749999999999991
20
4.4999999999999991
0
LWPOLYLINE
5
109
100
AcDbEntity
8
0
100
AcDbPolyline
90
4
70
1
43
0.0
10
-0.3612204724409443
20
5.4999999999999991
10
-0.1249999999999996
20
5.4999999999999991
10
-0.1249999999999996
20
4.4999999999999991
10
-0.3612204724409443
20
4.4999999999999991
0
LWPOLYLINE
5
110
100
AcDbEntity
8
0
100
AcDbPolyline
90
4
70
1
43
0.0
10
-4.8749999999999991
20
2.4999999999999991
10
-4.6387795275590546
20
2.4999999999999991
10
-4.6387795275590546
20
1.4999999999999993
10
-4.8749999999999991
20
1.4999999999999993
0
LWPOLYLINE
5
111
100
AcDbEntity
8
0
100
AcDbPolyline
90
4
70
1
43
0.0
10
-0.3612204724409443
20
2.4999999999999991
10
-0.1249999999999996
20
2.4999999999999991
10
-0.1249999999999996
20
1.4999999999999993
10
-0.3612204724409443
20
1.4999999999999993
0
LWPOLYLINE
5
112
100
AcDbEntity
8
0
100
AcDbPolyline
90
4
70
1
43
0.0
10
-4.0583868253724793
20
12.824320304036787
10
-0.95852576086350427
20
12.824320304036787
10
-0.95852576086350427
20
2.6744938213763079
10
-4.0583868253724793
20
2.674493821376307
0
LWPOLYLINE
5
113
100
AcDbEntity
8
0
100
AcDbPolyline
90
4
70
1
43
0.0
10
-3.9999999999999996
20
0.73622047244094491
10
-3
20
0.73622047244094491
10
-3
20
0.49999999999999994
10
-3.9999999999999996
20
0.49999999999999994
0
LWPOLYLINE
5
114
100
AcDbEntity
8
0
100
AcDbPolyline
90
4
70
1
43
0.0
10
-1.0000000000000002
20
0.49999999999999994
10
-1.9999999999999998
20
0.49999999999999994
10
-1.9999999999999998
20
0.73622047244094491
10
-1.0000000000000002
20
0.73622047244094491
0
LWPOLYLINE
5
115
100
AcDbEntity
8
0
100
AcDbPolyline
90
4
70
1
43
0.0
10
-4.0583868253724793
20
11.327318306022722
10
-0.95852576086350427
20
11.327318306022722
10
-0.95852576086350427
20
10.632323645209262
10
-4.0583868253724793
20
10.632323645209262
0
LWPOLYLINE
5
116
100
AcDbEntity
8
0
100
AcDbPolyline
90
4
70
1
43
0.0
10
-4.0583868253724793
20
5.8521164659557048
10
-0.95852576086350427
20
5.8521164659557048
10
-0.95852576086350427
20
4.9816397196352247
10
-4.0583868253724793
20
4.9816397196352247
0
ENDSEC
0
SECTION
2
OBJECTS
0
DICTIONARY
5
C
100
AcDbDictionary
3
ACAD_GROUP
350
D
3
ACAD_MLINESTYLE
350
17
0
DICTIONARY
5
D
100
AcDbDictionary
0
DICTIONARY
5
1A
330
C
100
AcDbDictionary
0
DICTIONARY
5
17
100
AcDbDictionary
0
ENDSEC
0
EOF
