0
SECTION
2
HEADER
9
$INSUNITS
70
1
9
$ACADVER
1
AC1014
9
$HANDSEED
5
FFFF
0
ENDSEC
0
SECTION
2
TABLES
0
TABLE
2
VPORT
5
8
100
AcDbSymbolTable
0
ENDTAB
0
TABLE
2
LTYPE
5
5
100
AcDbSymbolTable
0
LTYPE
5
14
100
AcDbSymbolTableRecord
100
AcDbLinetypeTableRecord
2
BYBLOCK
70
0
0
LTYPE
5
15
100
AcDbSymbolTableRecord
100
AcDbLinetypeTableRecord
2
BYLAYER
70
0
0
LTYPE
5
16
100
AcDbSymbolTableRecord
100
AcDbLinetypeTableRecord
2
DASHED
70
0
3
Dashed __ __ __ __ __ __ __ __ __ __ __ __ __ _
72
65
73
2
40
0.75
49
0.5
74
0
49
-0.25
74
0
0
ENDTAB
0
TABLE
2
LAYER
5
2
100
AcDbSymbolTable
70
2
0
LAYER
5
50
100
AcDbSymbolTableRecord
100
AcDbLayerTableRecord
2
0
70
0
62
7
6
CONTINUOUS
0
ENDTAB
0
TABLE
2
STYLE
5
3
100
AcDbSymbolTable
70
1
0
STYLE
5
11
100
AcDbSymbolTableRecord
100
AcDbTextStyleTableRecord
2
STANDARD
70
0
0
ENDTAB
0
TABLE
2
VIEW
5
6
100
AcDbSymbolTable
70
0
0
ENDTAB
0
TABLE
2
UCS
5
7
100
AcDbSymbolTable
70
0
0
ENDTAB
0
TABLE
2
APPID
5
9
100
AcDbSymbolTable
70
2
0
APPID
5
12
100
AcDbSymbolTableRecord
100
AcDbRegAppTableRecord
2
ACAD
70
0
0
ENDTAB
0
TABLE
2
DIMSTYLE
5
A
100
AcDbSymbolTable
70
1
0
ENDTAB
0
TABLE
2
BLOCK_RECORD
5
1
100
AcDbSymbolTable
70
1
0
BLOCK_RECORD
5
1F
100
AcDbSymbolTableRecord
100
AcDbBlockTableRecord
2
*MODEL_SPACE
0
BLOCK_RECORD
5
1B
100
AcDbSymbolTableRecord
100
AcDbBlockTableRecord
2
*PAPER_SPACE
0
ENDTAB
0
ENDSEC
0
SECTION
2
BLOCKS
0
BLOCK
5
20
100
AcDbEntity
100
AcDbBlockBegin
2
*MODEL_SPACE
0
ENDBLK
5
21
100
AcDbEntity
100
AcDbBlockEnd
0
BLOCK
5
1C
100
AcDbEntity
100
AcDbBlockBegin
2
*PAPER_SPACE
0
ENDBLK
5
1D
100
AcDbEntity
100
AcDbBlockEnd
0
ENDSEC
0
SECTION
2
ENTITIES
0
POINT
5
100
100
AcDbEntity
8
0
100
AcDbPoint
10
0
20
0
30
0
0
POINT
5
101
100
AcDbEntity
8
0
100
AcDbPoint
10
-5.2775590551181129
20
-8.2019493638650767e-16
30
0
0
POINT
5
102
100
AcDbEntity
8
0
100
AcDbPoint
10
-3.9999999999999996
20
0
30
0
0
POINT
5
103
100
AcDbEntity
8
0
100
AcDbPoint
10
-3
20
0
30
0
0
POINT
5
104
100
AcDbEntity
8
0
100
AcDbPoint
10
-1.9999999999999998
20
0
30
0
0
POINT
5
105
100
AcDbEntity
8
0
100
AcDbPoint
10
-1.0000000000000002
20
0
30
0
0
LINE
5
106
100
AcDbEntity
8
0
100
AcDbLine
10
-0.49999999999999994
20
-9.500748999999999
30
0
11
-2.6387795275590542
21
-9.500748999999999
31
0
0
LINE
5
107
100
AcDbEntity
8
0
100
AcDbLine
10
-0.49999999999999994
20
-1.5007489999999999
30
0
11
-0.26377952755905509
21
-1.5007489999999999
31
0
0
LINE
5
108
100
AcDbEntity
8
0
100
AcDbLine
10
-0.26377952755905509
20
-1.5007489999999999
30
0
11
-0.26377952755905509
21
-2.5007489999999999
31
0
0
LINE
5
109
100
AcDbEntity
8
0
100
AcDbLine
10
-0.26377952755905509
20
-2.5007489999999999
30
0
11
-0.49999999999999994
21
-2.5007489999999999
31
0
0
LINE
5
110
100
AcDbEntity
8
0
100
AcDbLine
10
-0.49999999999999994
20
-4.5007489999999999
30
0
11
-0.26377952755905509
21
-4.500748999999951
31
0
0
LINE
5
111
100
AcDbEntity
8
0
100
AcDbLine
10
-0.26377952755905509
20
-4.500748999999951
30
0
11
-0.26377952755905509
21
-5.5007489999999999
31
0
0
LINE
5
112
100
AcDbEntity
8
0
100
AcDbLine
10
-0.26377952755905509
20
-5.5007489999999999
30
0
11
-0.49999999999999994
21
-5.5007489999999999
31
0
0
LINE
5
113
100
AcDbEntity
8
0
100
AcDbLine
10
-0.49999999999999994
20
-7.5007489999999981
30
0
11
-0.26377952755905509
21
-7.5007489999999981
31
0
0
LINE
5
114
100
AcDbEntity
8
0
100
AcDbLine
10
-0.26377952755905509
20
-7.5007489999999981
30
0
11
-0.26377952755905509
21
-8.5007489999999972
31
0
0
LINE
5
115
100
AcDbEntity
8
0
100
AcDbLine
10
-0.26377952755905509
20
-8.5007489999999972
30
0
11
-0.49999999999999994
21
-8.5007489999999972
31
0
0
LINE
5
116
100
AcDbEntity
8
0
100
AcDbLine
10
-0.49999999999999994
20
-0.50074899999999989
30
0
11
-0.49999999999999994
21
-1.5007489999999999
31
0
0
LINE
5
117
100
AcDbEntity
8
0
100
AcDbLine
10
-0.49999999999999994
20
-2.5007489999999999
30
0
11
-0.49999999999999994
21
-4.5007489999999999
31
0
0
LINE
5
118
100
AcDbEntity
8
0
100
AcDbLine
10
-0.49999999999999994
20
-5.5007489999999999
30
0
11
-0.49999999999999994
21
-7.5007489999999981
31
0
0
LINE
5
119
100
AcDbEntity
8
0
100
AcDbLine
10
-0.49999999999999994
20
-8.5007489999999972
30
0
11
-0.49999999999999994
21
-9.500748999999999
31
0
0
LINE
5
120
100
AcDbEntity
8
0
100
AcDbLine
10
-2.6387795275590564
20
-0.50074899999999989
30
0
11
-2.6387795275590542
21
-9.500748999999999
31
0
6
DASHED
0
LINE
5
121
100
AcDbEntity
8
0
100
AcDbLine
10
-4.7775590551181111
20
-4.5007489999999999
30
0
11
-5.0137795275590564
21
-4.500748999999951
31
0
0
LINE
5
122
100
AcDbEntity
8
0
100
AcDbLine
10
-5.0137795275590573
20
-1.5007490000000006
30
0
11
-5.0137795275590564
21
-2.5007490000000003
31
0
0
LINE
5
123
100
AcDbEntity
8
0
100
AcDbLine
10
-4.7775590551181129
20
-1.5007490000000006
30
0
11
-5.0137795275590573
21
-1.5007490000000006
31
0
0
LINE
5
124
100
AcDbEntity
8
0
100
AcDbLine
10
-5.0137795275590564
20
-2.5007490000000003
30
0
11
-4.777559055118112
21
-2.5007490000000003
31
0
0
LINE
5
125
100
AcDbEntity
8
0
100
AcDbLine
10
-4.777559055118112
20
-2.5007490000000003
30
0
11
-4.7775590551181111
21
-4.5007489999999999
31
0
0
LINE
5
126
100
AcDbEntity
8
0
100
AcDbLine
10
-4.7775590551181129
20
-0.50074900000000022
30
0
11
-4.7775590551181129
21
-1.5007490000000006
31
0
0
LINE
5
127
100
AcDbEntity
8
0
100
AcDbLine
10
-5.0137795275590555
20
-5.5007490000000008
30
0
11
-4.7775590551181102
21
-5.5007490000000008
31
0
0
LINE
5
128
100
AcDbEntity
8
0
100
AcDbLine
10
-5.0137795275590564
20
-4.500748999999951
30
0
11
-5.0137795275590555
21
-5.5007490000000008
31
0
0
LINE
5
129
100
AcDbEntity
8
0
100
AcDbLine
10
-4.7775590551181102
20
-5.5007490000000008
30
0
11
-4.7775590551181102
21
-7.5007489999999999
31
0
0
LINE
5
130
100
AcDbEntity
8
0
100
AcDbLine
10
-4.7775590551181102
20
-7.5007489999999999
30
0
11
-5.0137795275590546
21
-7.5007489999999999
31
0
0
LINE
5
131
100
AcDbEntity
8
0
100
AcDbLine
10
-5.0137795275590546
20
-8.500748999999999
30
0
11
-4.7775590551181102
21
-8.500748999999999
31
0
0
LINE
5
132
100
AcDbEntity
8
0
100
AcDbLine
10
-4.7775590551181093
20
-9.5007490000000008
30
0
11
-2.6387795275590542
21
-9.5007490000000008
31
0
0
LINE
5
133
100
AcDbEntity
8
0
100
AcDbLine
10
-4.7775590551181102
20
-8.500748999999999
30
0
11
-4.7775590551181093
21
-9.5007490000000008
31
0
0
LINE
5
134
100
AcDbEntity
8
0
100
AcDbLine
10
-5.0137795275590546
20
-7.5007489999999999
30
0
11
-5.0137795275590546
21
-8.500748999999999
31
0
0
LINE
5
135
100
AcDbEntity
8
0
100
AcDbLine
10
-2.1387795275590555
20
-0.50074899999999989
30
0
11
-2.1387795275590555
21
-0.26452852755905504
31
0
0
LINE
5
136
100
AcDbEntity
8
0
100
AcDbLine
10
-2.1387795275590555
20
-0.26452852755905504
30
0
11
-1.1387795275590551
21
-0.26452852755905504
31
0
0
LINE
5
137
100
AcDbEntity
8
0
100
AcDbLine
10
-1.1387795275590551
20
-0.26452852755905504
30
0
11
-1.1387795275590551
21
-0.50074899999999989
31
0
0
LINE
5
138
100
AcDbEntity
8
0
100
AcDbLine
10
-2.6387795275590564
20
-0.50074899999999989
30
0
11
-2.1387795275590555
21
-0.50074899999999989
31
0
0
LINE
5
139
100
AcDbEntity
8
0
100
AcDbLine
10
-1.1387795275590551
20
-0.50074899999999989
30
0
11
-0.49999999999999994
21
-0.50074899999999989
31
0
0
LINE
5
140
100
AcDbEntity
8
0
100
AcDbLine
10
-4.1387795275590582
20
-0.26452852755905554
30
0
11
-4.1387795275590582
21
-0.50074900000000044
31
0
0
LINE
5
141
100
AcDbEntity
8
0
100
AcDbLine
10
-3.1387795275590582
20
-0.2645285275590552
30
0
11
-4.1387795275590582
21
-0.26452852755905554
31
0
0
LINE
5
142
100
AcDbEntity
8
0
100
AcDbLine
10
-3.1387795275590582
20
-0.50074900000000011
30
0
11
-3.1387795275590582
21
-0.2645285275590552
31
0
0
LINE
5
143
100
AcDbEntity
8
0
100
AcDbLine
10
-2.6387795275590564
20
-0.50074899999999989
30
0
11
-3.1387795275590582
21
-0.50074900000000011
31
0
0
LINE
5
144
100
AcDbEntity
8
0
100
AcDbLine
10
-4.1387795275590582
20
-0.50074900000000044
30
0
11
-4.7775590551181129
21
-0.50074900000000022
31
0
0
ENDSEC
0
SECTION
2
OBJECTS
0
DICTIONARY
5
C
100
AcDbDictionary
3
ACAD_GROUP
350
D
3
ACAD_MLINESTYLE
350
17
0
DICTIONARY
5
D
100
AcDbDictionary
0
DICTIONARY
5
1A
330
C
100
AcDbDictionary
0
DICTIONARY
5
17
100
AcDbDictionary
0
ENDSEC
0
EOF
